<svg width="25.432mm" height="4.8657mm" version="1.1" viewBox="0 0 25.431568 4.8657355" xmlns="http://www.w3.org/2000/svg"><g transform="translate(-29.006 -94.225)" stroke-width=".26458"><g aria-label="zavva"><path d="m29.594 94.357q0.74414 0.04134 1.5865 0.04134 0.91984 0 1.6847-0.04134 0.09302 0.09819 0.09302 0.1912l-2.6665 4.0204h1.142q0.27388 0 0.49093-0.06201 0.22221-0.06718 0.3669-0.15503 0.14986-0.08785 0.30489-0.27388 0.15503-0.1912 0.24288-0.3359 0.09302-0.14469 0.25838-0.42891 0.09302 0 0.18087 0.04134l-0.33073 1.6175q-0.90434-0.03101-1.8087-0.03101-0.95085 0-1.85 0.03101-0.09819-0.05684-0.13953-0.21187l2.7078-4.0824h-0.6873q-1.1679 0-1.695 1.0697-0.03617 0-0.12919-0.03617-0.08785-0.03617-0.11369-0.06201z"/><path d="m34.524 95.545q0-0.56844 0.51676-0.93534 0.52193-0.3669 1.2299-0.3669 0.86816 0 1.2196 0.34623 0.35657 0.34623 0.35657 1.1679v2.1446q0 0.28939 0.21187 0.28939 0.17053 0 0.43408-0.41341 0.18604 0.0155 0.25322 0.16536-0.03617 0.05168-0.12402 0.18604-0.08785 0.13436-0.12919 0.1912-0.04134 0.05684-0.12919 0.1757-0.08785 0.11369-0.14469 0.17053-0.05168 0.05684-0.14469 0.13436-0.08785 0.07751-0.16536 0.11886-0.07235 0.03617-0.17053 0.06201-0.09819 0.031-0.19637 0.031-0.25838 0-0.42892-0.18604-0.16536-0.18604-0.19637-0.57361-0.0052 0.0052-0.1602 0.14986-0.15503 0.14469-0.21704 0.19637-0.05684 0.04651-0.22221 0.17053-0.1602 0.11886-0.27388 0.17053-0.11369 0.05168-0.28422 0.09819-0.17053 0.05168-0.3359 0.05168-0.26355 0-0.47026-0.07235-0.20154-0.07235-0.31523-0.1757-0.11369-0.10335-0.18604-0.23771-0.07235-0.13953-0.09819-0.25322-0.02067-0.11369-0.02067-0.22738 0-0.34623 0.11369-0.58394 0.11886-0.23771 0.43408-0.44442 0.32039-0.20671 0.78548-0.3669t1.2506-0.36174v-0.7183q0-0.52193-0.23254-0.78031-0.22738-0.25838-0.61495-0.25838-0.34623 0-0.58394 0.13953-0.23254 0.13436-0.28422 0.31523 0.50643 0.07751 0.50643 0.55294 0 0.21704-0.15503 0.38241-0.15503 0.16536-0.43408 0.16536-0.23254 0-0.41341-0.1602-0.18087-0.16536-0.18087-0.45992zm2.3926 2.2324v-1.08q-0.47542 0.10852-0.78548 0.23771-0.31006 0.12402-0.47542 0.27388-0.1602 0.14986-0.22221 0.31006-0.06201 0.15503-0.06201 0.36174 0 0.25838 0.14986 0.40824 0.15503 0.14469 0.37724 0.14469 0.51676 0 1.018-0.65629z"/><path d="m38.829 94.357q0.68213 0.03101 1.3746 0.03101 0.58394 0 1.2506-0.03101 0.02067 0.08268 0.02067 0.12919 0 0.03101-0.02067 0.11369-0.14469 0.01034-0.23771 0.02584-0.08785 0.01034-0.22221 0.04134-0.13436 0.03101-0.20154 0.09302-0.06718 0.06201-0.06718 0.14986 0 0.04651 0.04134 0.1912l0.94051 2.6097h0.03101l1.1007-2.6097q0.05684-0.13953 0.05684-0.22221 0-0.23771-0.59428-0.27905-0.02067-0.08268-0.02067-0.11369 0-0.04651 0.02067-0.12919 0.60462 0.03101 0.74931 0.03101 0.43408 0 1.1007-0.03101 0.02067 0.06201 0.02067 0.10852 0 0.031-0.02067 0.13436-0.61495 0.02584-0.83716 0.50126l-1.7673 3.9894h-0.25321l-1.5658-3.9894q-0.05168-0.13436-0.15503-0.22738-0.09819-0.09819-0.25838-0.14986-0.15503-0.05684-0.24288-0.07752-0.08268-0.02067-0.24288-0.04651-0.02067-0.04134-0.02067-0.11369 0-0.07752 0.02067-0.12919z"/><path d="m43.873 94.357q0.68213 0.03101 1.3746 0.03101 0.58394 0 1.2506-0.03101 0.02067 0.08268 0.02067 0.12919 0 0.03101-0.02067 0.11369-0.14469 0.01034-0.23771 0.02584-0.08785 0.01034-0.22221 0.04134-0.13436 0.03101-0.20154 0.09302-0.06718 0.06201-0.06718 0.14986 0 0.04651 0.04134 0.1912l0.94051 2.6097h0.03101l1.1007-2.6097q0.05684-0.13953 0.05684-0.22221 0-0.23771-0.59428-0.27905-0.02067-0.08268-0.02067-0.11369 0-0.04651 0.02067-0.12919 0.60462 0.03101 0.74931 0.03101 0.43408 0 1.1007-0.03101 0.02067 0.06201 0.02067 0.10852 0 0.031-0.02067 0.13436-0.61495 0.02584-0.83716 0.50126l-1.7673 3.9894h-0.25322l-1.5658-3.9894q-0.05168-0.13436-0.15503-0.22738-0.09819-0.09819-0.25838-0.14986-0.15503-0.05684-0.24288-0.07752-0.08268-0.02067-0.24288-0.04651-0.02067-0.04134-0.02067-0.11369 0-0.07752 0.02067-0.12919z"/><path d="m49.986 95.545q0-0.56844 0.51676-0.93534 0.52193-0.3669 1.2299-0.3669 0.86816 0 1.2196 0.34623 0.35657 0.34623 0.35657 1.1679v2.1446q0 0.28939 0.21187 0.28939 0.17053 0 0.43408-0.41341 0.18604 0.0155 0.25322 0.16536-0.03617 0.05168-0.12402 0.18604-0.08785 0.13436-0.12919 0.1912-0.04134 0.05684-0.12919 0.1757-0.08785 0.11369-0.14469 0.17053-0.05168 0.05684-0.14469 0.13436-0.08785 0.07751-0.16536 0.11886-0.07235 0.03617-0.17053 0.06201-0.09819 0.031-0.19637 0.031-0.25838 0-0.42891-0.18604-0.16536-0.18604-0.19637-0.57361-0.0052 0.0052-0.1602 0.14986-0.15503 0.14469-0.21704 0.19637-0.05684 0.04651-0.22221 0.17053-0.1602 0.11886-0.27388 0.17053-0.11369 0.05168-0.28422 0.09819-0.17053 0.05168-0.3359 0.05168-0.26355 0-0.47026-0.07235-0.20154-0.07235-0.31523-0.1757-0.11369-0.10335-0.18604-0.23771-0.07235-0.13953-0.09819-0.25322-0.02067-0.11369-0.02067-0.22738 0-0.34623 0.11369-0.58394 0.11886-0.23771 0.43408-0.44442 0.32039-0.20671 0.78548-0.3669t1.2506-0.36174v-0.7183q0-0.52193-0.23254-0.78031-0.22738-0.25838-0.61495-0.25838-0.34623 0-0.58394 0.13953-0.23254 0.13436-0.28422 0.31523 0.50643 0.07751 0.50643 0.55294 0 0.21704-0.15503 0.38241-0.15503 0.16536-0.43408 0.16536-0.23254 0-0.41341-0.1602-0.18087-0.16536-0.18087-0.45992zm2.3926 2.2324v-1.08q-0.47542 0.10852-0.78548 0.23771-0.31006 0.12402-0.47542 0.27388-0.1602 0.14986-0.22221 0.31006-0.06201 0.15503-0.06201 0.36174 0 0.25838 0.14986 0.40824 0.15503 0.14469 0.37724 0.14469 0.51676 0 1.018-0.65629z"/></g><rect x="29.006" y="94.225" width="25.432" height="4.8531" fill="none"/><rect x="29.006" y="94.225" width="25.432" height="4.8531" fill="none"/></g></svg>
